<?xml version="1.0" encoding="UTF-8" standalone="no"?>
<svg
   height="500"
   viewBox="0 0 780 500"
   width="780"
   version="1.1"
   id="svg10"
   sodipodi:docname="discover.svg"
   xml:space="preserve"
   inkscape:version="1.2.2 (732a01da63, 2022-12-09)"
   xmlns:inkscape="http://www.inkscape.org/namespaces/inkscape"
   xmlns:sodipodi="http://sodipodi.sourceforge.net/DTD/sodipodi-0.dtd"
   xmlns="http://www.w3.org/2000/svg"
   xmlns:svg="http://www.w3.org/2000/svg"><defs
     id="defs14" /><sodipodi:namedview
     id="namedview12"
     pagecolor="#ffffff"
     bordercolor="#000000"
     borderopacity="0.25"
     inkscape:showpageshadow="2"
     inkscape:pageopacity="0.0"
     inkscape:pagecheckerboard="0"
     inkscape:deskcolor="#d1d1d1"
     showgrid="false"
     inkscape:zoom="0.525"
     inkscape:cx="336.19048"
     inkscape:cy="252.38095"
     inkscape:window-width="1360"
     inkscape:window-height="706"
     inkscape:window-x="-8"
     inkscape:window-y="-8"
     inkscape:window-maximized="1"
     inkscape:current-layer="svg10" /><g
     fill-rule="evenodd"
     id="g8"><path
       d="m54.992 0c-30.365 0-54.992 24.63-54.992 55.004v390.992c0 30.38 24.619 55.004 54.992 55.004h670.016c30.365 0 54.992-24.63 54.992-55.004v-390.992c0-30.38-24.619-55.004-54.992-55.004z"
       fill="#4d4d4d"
       id="path2"
       style="fill:#ffffff;fill-opacity:1;stroke:#ebebeb;stroke-opacity:1;stroke-width:5;stroke-dasharray:none" /><path
       d="m415.13 161.21c30.941 0 56.022 23.58 56.022 52.709v.033c0 29.13-25.081 52.742-56.021 52.742s-56.022-23.613-56.022-52.742v-.033c0-29.13 25.082-52.71 56.022-52.71zm364.85 127.15c-26.05 18.33-221.08 149.34-558.75 212.62h503.76c30.365 0 54.992-24.63 54.992-55.004v-157.62z"
       fill="#f47216"
       id="path6" /></g><g
     id="g7690"><g
       id="g7679"><path
         style="fill:#434343;fill-opacity:1;stroke-width:0.952381"
         d="m 67.619048,213.70619 v -49.15096 l 21.190476,0.46915 c 23.696496,0.52463 28.051806,1.3231 39.282846,7.20183 7.75449,4.05898 16.04319,11.96492 19.73343,18.82217 5.2723,9.79704 6.98074,23.81014 4.1836,34.31506 -3.25462,12.22306 -13.15867,24.76377 -24.20846,30.65325 -10.47115,5.58106 -17.89705,6.84045 -40.334238,6.84045 H 67.619048 Z m 42.498992,31.47719 c 14.68763,-4.08509 24.12196,-17.99329 22.98494,-33.88464 -0.61355,-8.57527 -4.062,-15.52233 -10.73035,-21.61682 -6.67961,-6.10479 -11.76611,-7.8642 -24.515487,-8.47983 l -10.238095,-0.49438 v 33.55678 33.55677 l 8.809523,-0.6403 c 4.845239,-0.35217 11.005499,-1.25108 13.689469,-1.99758 z"
         id="path7587" /><path
         style="fill:#434343;fill-opacity:1;stroke-width:0.952381"
         d="M 163.80952,213.80952 V 164.7619 h 10 10 v 49.04762 49.04762 h -10 -10 z"
         id="path7589" /><path
         style="fill:#434343;fill-opacity:1;stroke-width:0.952381"
         d="m 214.55813,263.42978 c -6.13334,-1.99253 -11.66666,-5.62016 -17.22576,-11.29317 l -5.04858,-5.15203 6.17202,-5.41873 6.17203,-5.41874 4.71195,4.71195 c 9.24462,9.24463 23.10181,10.27257 30.84093,2.28782 2.84219,-2.9324 3.15261,-3.80396 3.15261,-8.85153 0,-8.04537 -2.23065,-10.05561 -17.46391,-15.73832 -18.222,-6.79765 -24.17912,-11.02582 -26.82354,-19.0385 -1.56725,-4.7488 -0.8048,-15.31231 1.44022,-19.95379 5.74881,-11.88543 20.58459,-18.36186 36.42642,-15.90164 7.35837,1.14275 16.86567,4.9244 20.97035,8.34124 l 2.16859,1.80518 -4.83862,5.96196 -4.83862,5.96196 -3.28042,-2.50209 c -1.80422,-1.37615 -4.88842,-3.07594 -6.85377,-3.7773 -10.63021,-3.79355 -22.14479,1.54369 -22.14479,10.26456 0,5.23663 3.45775,8.23842 13.98952,12.14477 14.3585,5.32573 21.60466,9.18147 25.79189,13.72408 4.82237,5.23166 6.27785,10.23408 5.71744,19.65064 -0.7245,12.17374 -6.91586,21.06222 -18.35599,26.35237 -4.98165,2.30362 -7.05746,2.6745 -16.19048,2.89275 -6.91781,0.16532 -11.83936,-0.1925 -14.48949,-1.05344 z"
         id="path7591" /><path
         style="fill:#434343;fill-opacity:1;stroke-width:0.952381"
         d="m 312.17941,263.3401 c -20.40884,-5.15724 -36.48657,-21.98469 -39.86342,-41.72231 -4.29536,-25.10627 13.35531,-50.44678 39.91089,-57.2988 11.22455,-2.89622 25.79826,-1.89954 36.10645,2.46928 l 4.04762,1.71547 v 10.50845 10.50845 l -4.52381,-3.24672 c -7.4135,-5.32065 -12.00613,-6.75011 -21.68704,-6.75011 -7.78518,0 -9.18759,0.29332 -14.93792,3.12436 -7.80112,3.84069 -14.14573,10.59768 -17.00676,18.11218 -2.8463,7.47583 -2.8463,18.62252 0,26.09835 7.61522,20.00137 33.76993,27.758 52.11572,15.45581 l 6.101,-4.09117 -0.26869,10.6447 -0.26869,10.64469 -6.19047,2.27794 c -7.85933,2.89201 -25.07423,3.68741 -33.53488,1.54943 z"
         id="path7593" /><path
         style="fill:#434343;fill-opacity:1;stroke-width:0.952381"
         d="m 487.88195,215.51714 -22.08252,-50.27904 9.65495,-0.27334 c 5.31022,-0.15033 10.11249,-0.096 10.67171,0.12076 0.55922,0.21674 7.23105,15.22078 14.82629,33.34232 7.59524,18.12153 14.02381,32.95208 14.28572,32.95679 0.2619,0.005 6.86898,-14.98348 14.6824,-33.30709 l 14.20622,-33.31564 h 10.31759 c 5.67468,0 10.31759,0.20151 10.31759,0.4478 0,0.24629 -10.02183,22.85343 -22.27074,50.2381 l -22.27075,49.7903 -5.12797,0.27904 -5.12797,0.27905 z"
         id="path7595" /><path
         style="fill:#434343;fill-opacity:1;stroke-width:0.952381"
         d="M 576.19048,213.80952 V 164.7619 h 28.57142 28.57143 v 8.09524 8.09524 H 614.28571 595.2381 v 11.42857 11.42857 h 18.09523 18.09524 V 211.90476 220 H 613.33333 595.2381 v 13.80952 13.80953 h 19.04761 19.04762 v 7.61905 7.61904 H 604.7619 576.19048 Z"
         id="path7597" /><path
         style="fill:#434343;fill-opacity:1;stroke-width:0.952381"
         d="M 647.61905,213.80952 V 164.7619 l 17.85714,0.0165 c 24.55902,0.0227 33.68608,2.1494 41.11722,9.58053 5.61228,5.61228 7.20167,9.90046 7.20928,19.45055 0.006,7.8152 -0.25231,9.03357 -2.93044,13.80953 -3.31737,5.91593 -9.71437,10.87147 -16.31141,12.63591 -2.26021,0.60452 -3.99675,1.43234 -3.85897,1.8396 0.13778,0.40727 7.2148,9.49424 15.7267,20.19327 8.51191,10.69903 15.47619,19.7172 15.47619,20.04036 0,0.32317 -5.22847,0.46725 -11.61883,0.32017 l -11.61882,-0.26741 -13.97374,-19.52381 c -7.68556,-10.73809 -14.67137,-19.66237 -15.52403,-19.83173 -1.39283,-0.27666 -1.55029,1.73051 -1.55029,19.7619 v 20.06983 h -10 -10 z m 38.61645,-5.85218 c 5.16612,-2.68098 7.34315,-6.02529 7.78909,-11.96546 C 694.81322,185.48676 688.29841,180 675.0363,180 h -7.41725 v 15.36046 15.36046 l 7.47996,-0.433 c 4.90148,-0.28375 8.74043,-1.08714 11.13649,-2.33058 z"
         id="path7599" /></g><path
       style="fill:#f47216;fill-opacity:1;stroke-width:0.952381"
       d="m 408.1507,265.56822 c -12.95219,-1.34058 -23.6293,-6.60851 -33.46904,-16.51314 -10.2834,-10.35121 -14.6491,-20.85922 -14.67036,-35.31079 -0.0354,-24.08251 17.49822,-44.90823 42.49059,-50.4685 34.46052,-7.66674 67.90677,17.22085 67.963,50.57173 0.0228,13.5294 -5.1059,25.5492 -15.22679,35.68604 -12.36625,12.38571 -28.67735,17.94013 -47.0874,16.03466 z"
       id="path7670" /></g></svg>
