<?xml version="1.0" encoding="UTF-8" standalone="no"?>
<svg
   width="2500"
   height="2500"
   viewBox="126.444 2.281 589 589"
   version="1.1"
   id="svg889"
   sodipodi:docname="Facebook-f_Logo-Blue-Logo.wine.svg"
   inkscape:version="1.2.2 (732a01da63, 2022-12-09)"
   xmlns:inkscape="http://www.inkscape.org/namespaces/inkscape"
   xmlns:sodipodi="http://sodipodi.sourceforge.net/DTD/sodipodi-0.dtd"
   xmlns="http://www.w3.org/2000/svg"
   xmlns:svg="http://www.w3.org/2000/svg">
  <defs
     id="defs893" />
  <sodipodi:namedview
     id="namedview891"
     pagecolor="#ffffff"
     bordercolor="#000000"
     borderopacity="0.25"
     inkscape:showpageshadow="2"
     inkscape:pageopacity="0.0"
     inkscape:pagecheckerboard="0"
     inkscape:deskcolor="#d1d1d1"
     showgrid="false"
     inkscape:zoom="0.105"
     inkscape:cx="271.42857"
     inkscape:cy="1852.381"
     inkscape:window-width="1360"
     inkscape:window-height="706"
     inkscape:window-x="-8"
     inkscape:window-y="-8"
     inkscape:window-maximized="1"
     inkscape:current-layer="svg889" />
  <g
     id="g1637"
     transform="matrix(0.42935798,0,0,0.42935798,127.64399,3.8376852)"
     style="display:inline">
    <path
       d="M 948.4,880 978.667,682.667 H 789.333 V 554.609 C 789.333,500.623 815.78,448 900.584,448 h 86.083 V 280 c 0,0 -78.124,-13.333 -152.814,-13.333 -155.936,0 -257.853,94.506 -257.853,265.6 v 150.4 H 402.667 V 880 H 576 v 477.04 a 687.805,687.805 0 0 0 106.667,8.293 c 36.288,0 71.91,-2.84 106.666,-8.293 V 880 H 948.4"
       fill="#ffffff"
       id="path172"
       style="display:inline" />
    <g
       id="g1631"
       style="display:inline">
      <g
         id="g1587">
        <path
           style="display:inline;fill:#03a9f4;fill-opacity:1;stroke-width:1.52381"
           d="M 542.50539,659.60634 C 436.89732,635.29071 357.29089,551.85294 338.04198,445.3024 c -4.53906,-25.12555 -4.54509,-65.4476 -0.0135,-90.52556 25.38798,-140.49924 155.28877,-236.51242 295.41732,-218.35092 61.74647,8.00271 114.66248,34.83005 158.17329,80.19061 35.85149,37.37563 59.18517,82.32037 69.62656,134.11293 2.99259,14.84416 3.47693,21.87333 3.44751,50.03244 -0.0311,29.72071 -0.41501,34.54442 -4.13621,51.96427 -5.40267,25.29123 -11.31798,42.06737 -23.3179,66.13097 -12.50607,25.07856 -26.09684,44.20675 -46.38027,65.27744 -38.29382,39.78012 -88.51695,67.28336 -140.57303,76.98074 l -7.23809,1.34836 v -91.99375 -91.99374 h 30.44716 c 30.32616,0 30.45029,-0.0137 31.23285,-3.42857 0.9163,-3.99849 11.46285,-72.53349 11.46285,-74.48942 0,-0.72606 -16.50592,-1.3201 -36.67984,-1.3201 h -36.67983 l 0.48936,-32.50605 0.48935,-32.50602 4.57143,-7.33233 c 3.17718,-5.09602 7.12756,-8.77586 12.95238,-12.06539 8.27991,-4.67601 8.67949,-4.73924 33.14286,-5.24513 l 24.76191,-0.51206 V 275.7811 c 0,-30.39217 -0.23213,-33.35782 -2.66667,-34.06895 -7.33288,-2.14193 -35.57652,-4.35272 -55.2381,-4.32379 -17.41383,0.0256 -24.61367,0.70026 -33.98168,3.18417 -33.61541,8.91303 -56.24183,31.69709 -66.01519,66.47509 -2.02653,7.21135 -2.71103,17.91511 -3.24002,50.66667 l -0.67069,41.52381 h -34.16717 -34.16717 l 0.40668,39.23809 0.40667,39.2381 33.90476,0.4101 33.90477,0.4101 v 92.16133 c 0,50.68873 -0.51429,92.09938 -1.14286,92.02366 -0.62857,-0.0757 -6.95829,-1.47662 -14.06604,-3.11314 z"
           id="path878"
           transform="matrix(2.5599994,0,0,2.5599994,-853.33312,-341.33325)" />
      </g>
    </g>
  </g>
</svg>
