<?xml version="1.0" encoding="UTF-8" standalone="no"?>
<svg
   width="2500"
   height="2500"
   viewBox="126.444 2.281 589 589"
   version="1.1"
   id="svg889"
   sodipodi:docname="cdnlogo.com_twitter-icon.svg"
   inkscape:version="1.2.2 (732a01da63, 2022-12-09)"
   xmlns:inkscape="http://www.inkscape.org/namespaces/inkscape"
   xmlns:sodipodi="http://sodipodi.sourceforge.net/DTD/sodipodi-0.dtd"
   xmlns="http://www.w3.org/2000/svg"
   xmlns:svg="http://www.w3.org/2000/svg">
  <defs
     id="defs893" />
  <sodipodi:namedview
     id="namedview891"
     pagecolor="#ffffff"
     bordercolor="#000000"
     borderopacity="0.25"
     inkscape:showpageshadow="2"
     inkscape:pageopacity="0.0"
     inkscape:pagecheckerboard="0"
     inkscape:deskcolor="#d1d1d1"
     showgrid="false"
     inkscape:zoom="0.105"
     inkscape:cx="323.80952"
     inkscape:cy="1852.381"
     inkscape:window-width="1360"
     inkscape:window-height="706"
     inkscape:window-x="-8"
     inkscape:window-y="-8"
     inkscape:window-maximized="1"
     inkscape:current-layer="svg889" />
  <circle
     cx="420.944"
     cy="296.781"
     r="294.5"
     fill="#2daae1"
     id="circle885" />
  <path
     d="M609.773 179.634c-13.891 6.164-28.811 10.331-44.498 12.204 16.01-9.587 28.275-24.779 34.066-42.86a154.78 154.78 0 0 1-49.209 18.801c-14.125-15.056-34.267-24.456-56.551-24.456-42.773 0-77.462 34.675-77.462 77.473 0 6.064.683 11.98 1.996 17.66-64.389-3.236-121.474-34.079-159.684-80.945-6.672 11.446-10.491 24.754-10.491 38.953 0 26.875 13.679 50.587 34.464 64.477a77.122 77.122 0 0 1-35.097-9.686v.979c0 37.54 26.701 68.842 62.145 75.961-6.511 1.784-13.344 2.716-20.413 2.716-4.998 0-9.847-.473-14.584-1.364 9.859 30.769 38.471 53.166 72.363 53.799-26.515 20.785-59.925 33.175-96.212 33.175-6.25 0-12.427-.373-18.491-1.104 34.291 21.988 75.006 34.824 118.759 34.824 142.496 0 220.428-118.052 220.428-220.428 0-3.361-.074-6.697-.236-10.021a157.855 157.855 0 0 0 38.707-40.158z"
     fill="#fff"
     id="path887" />
  <path
     style="fill:#03a9f4;stroke-width:4.7619"
     d="M 1177.8659,2495.0035 C 871.18752,2477.5297 584.39943,2348.1432 366.58676,2128.9891 163.52131,1924.673 42.105143,1670.3775 9.4285148,1380.9524 1.8443471,1313.7775 3.1747933,1164.4113 11.952243,1097.619 32.12229,944.13452 71.357171,817.248 140.99701,680.28524 199.19512,565.82524 273.46621,464.35728 368.91175,368.91175 568.17857,169.64491 813.22243,49.587338 1097.619,11.88653 c 118.0509,-15.649316 283.1646,-8.6411405 409.5239,17.382053 184.0373,37.901769 374.2291,128.245607 526.1904,249.947967 51.9454,41.60186 145.8483,135.50475 187.4502,187.45012 94.9157,118.51471 174.3448,266.71685 219.4845,409.52381 74.7537,236.49552 74.7537,511.12352 0,747.61902 -45.1397,142.807 -124.5688,291.0091 -219.4845,409.5238 -41.6644,52.0234 -135.5821,145.9214 -187.4502,187.4106 -198.0623,158.4302 -452.4363,259.0215 -688.0952,272.105 -26.1905,1.4541 -60.4762,3.3363 -76.1905,4.1829 -15.7143,0.8464 -56.746,-0.066 -91.1817,-2.0283 z m -137.3897,-595.2603 c 266.8717,-22.9794 498.01,-149.7277 654.1524,-358.7147 120.5647,-161.3684 186.353,-346.4751 194.4616,-547.15136 l 2.845,-70.40857 29.5875,-23.54347 c 46.8744,-37.2991 136.5504,-138.67743 129.1849,-146.04296 -1.4731,-1.473 -16.9652,3.04124 -34.4269,10.03167 -30.0697,12.03771 -120.1102,36.06676 -135.1974,36.08005 -4.2411,0.004 -2.3594,-3.09019 4.7619,-7.82943 37.8698,-25.20262 90.865,-89.11081 109.32,-131.83172 19.0501,-44.09838 19.9129,-43.6099 -31.7699,-17.98852 -48.8817,24.23276 -83.5689,37.25795 -133.9296,50.29114 l -30.0581,7.77891 -26.4664,-24.18876 c -28.1362,-25.71491 -97.3148,-61.94862 -134.846,-70.62838 -120.2836,-27.81772 -247.1672,11.76076 -328.1297,102.35271 -31.2143,34.92676 -63.8695,99.45976 -74.4938,147.21386 -6.1582,27.67995 -7.5802,50.00728 -5.7812,90.77281 2.1024,47.64266 1.4707,54.05247 -5.319,53.97057 C 1178.6296,999.35514 1057.927,975.37762 993.18643,953.98224 841.99143,904.01557 677.52143,795.46514 588.09524,686.62152 575,670.68286 562.56,657.52981 560.45086,657.39252 c -6.27534,-0.40857 -26.42419,47.89691 -36.64091,87.84386 -30.1039,117.70514 14.85095,258.46592 105.63043,330.74562 16.7711,13.3533 21.43948,19.2345 15.22929,19.1857 -17.43705,-0.1371 -71.26305,-14.4218 -100.803,-26.752 -16.46857,-6.874 -31.26957,-11.1716 -32.8911,-9.55 -5.17671,5.1767 7.49219,78.5088 19.55643,113.1995 17.03481,48.9837 38.74133,82.7755 79.09195,123.1272 37.89948,37.9004 84.11829,66.1281 133.22591,81.3663 l 26.19776,8.1293 -26.91948,3.3851 c -14.80571,1.8618 -46.41395,2.6285 -70.24052,1.7037 -34.68914,-1.3465 -43.32052,-0.3581 -43.31857,4.9616 0.001,3.6538 7.39009,21.8681 16.41957,40.4762 44.71019,92.1401 130.87924,157.041 236.3639,178.0249 l 44.83796,8.9196 -41.71829,27.3494 c -109.13952,71.5489 -222.29686,104.3279 -361.91838,104.8392 -86.79645,0.3176 -86.45396,-1.2175 -8.89119,39.8556 114.88767,60.8383 228.46262,93.2208 376.81357,107.4373 36.70991,3.5179 95.78876,2.7706 150.00001,-1.8974 z"
     id="path901"
     transform="matrix(0.2356,0,0,0.2356,126.444,2.281)" />
</svg>
