<svg width="54" height="54" viewBox="0 0 54 54" fill="none" xmlns="http://www.w3.org/2000/svg">
<rect width="53.6842" height="53.6842" rx="16" fill="#E8E8E8"/>
<path d="M24.2258 15.69C23.7867 16.3838 23.5169 17.1711 23.438 17.9884C23.373 19.0908 23.542 20.1776 24.2258 20.9992C24.9408 21.8572 25.973 22.138 26.9948 22.138C28.0426 22.138 29.067 21.8182 29.7716 20.968C30.4502 20.1464 30.6348 19.0674 30.5594 17.9728C30.4698 17.1697 30.1995 16.3973 29.769 15.7134C29.2958 14.9594 28.3988 14 26.9948 14C25.6064 14 24.7068 14.9282 24.2258 15.69ZM20.5 24.4C19.4657 24.4 18.4737 24.8109 17.7423 25.5423C17.0109 26.2737 16.6 27.2657 16.6 28.3V28.3156L21.4542 32.1012C21.5646 32.1866 21.6995 32.2343 21.839 32.2371C21.9786 32.2399 22.1153 32.1977 22.229 32.1168L25.115 30.0628C25.6654 29.6709 26.3243 29.4603 27 29.4603C27.6757 29.4603 28.3346 29.6709 28.885 30.0628L31.771 32.1168C31.8847 32.1977 32.0214 32.2399 32.161 32.2371C32.3005 32.2343 32.4354 32.1866 32.5458 32.1012L37.4 28.3156V28.3C37.4 27.2657 36.9891 26.2737 36.2577 25.5423C35.5263 24.8109 34.5343 24.4 33.5 24.4H20.5ZM34.1474 34.15L37.4 31.6124V37.4H38.7C39.0448 37.4 39.3754 37.537 39.6192 37.7808C39.863 38.0246 40 38.3552 40 38.7C40 39.0448 39.863 39.3754 39.6192 39.6192C39.3754 39.863 39.0448 40 38.7 40H15.3C14.9552 40 14.6246 39.863 14.3808 39.6192C14.137 39.3754 14 39.0448 14 38.7C14 38.3552 14.137 38.0246 14.3808 37.7808C14.6246 37.537 14.9552 37.4 15.3 37.4H16.6V31.6124L19.8526 34.15C20.4047 34.5814 21.0814 34.8228 21.7819 34.8382C22.4823 34.8537 23.169 34.6424 23.7396 34.2358L26.623 32.1818C26.7331 32.1034 26.8649 32.0613 27 32.0613C27.1351 32.0613 27.2669 32.1034 27.377 32.1818L30.263 34.2358C30.8333 34.6418 31.5195 34.8527 32.2194 34.8373C32.9193 34.8218 33.5955 34.5808 34.1474 34.15Z" fill="#353535"/>
</svg>
