<svg width="54" height="54" viewBox="0 0 54 54" fill="none" xmlns="http://www.w3.org/2000/svg">
<rect width="53.6842" height="53.6842" rx="16" fill="#E8E8E8"/>
<path d="M37.3647 17.1853C37.9065 16.4587 38 15 38 15H16C16 15 16.0935 16.4587 16.6352 17.1853L25.625 28.3333V36.3333H22.875C20.125 36.3333 20.125 39 20.125 39H33.875C33.875 39 33.875 36.3333 31.125 36.3333H28.375V28.3333L37.3647 17.1853ZM26.175 21.6667C26.175 21.1009 26.4068 20.5582 26.8194 20.1582C27.2319 19.7581 27.7915 19.5333 28.375 19.5333C28.9585 19.5333 29.5181 19.7581 29.9306 20.1582C30.3432 20.5582 30.575 21.1009 30.575 21.6667C30.575 22.2325 30.3432 22.7751 29.9306 23.1752C29.5181 23.5752 28.9585 23.8 28.375 23.8C27.7915 23.8 27.2319 23.5752 26.8194 23.1752C26.4068 22.7751 26.175 22.2325 26.175 21.6667Z" fill="#353535"/>
</svg>
