<svg width="54" height="54" viewBox="0 0 54 54" fill="none" xmlns="http://www.w3.org/2000/svg">
<rect width="54" height="54" rx="16" fill="#E8E8E8"/>
<path d="M38.9746 23.4274C38.9047 21.8525 38.5755 20.2999 38.0002 18.8321C37.899 18.5733 37.9278 18.3373 37.9597 18.0821C38.0502 17.3954 37.876 16.7 37.4725 16.137C37.069 15.5741 36.4665 15.1857 35.7872 15.0506C35.744 15.0376 35.7021 15.0207 35.6621 15H34.867C34.589 15.0937 34.2947 15.1519 34.0375 15.2912C33.7487 15.444 33.4834 15.6374 33.2495 15.8655C27.4489 21.6563 21.6527 27.4511 15.8609 33.25C15.4305 33.6804 15.1357 34.1853 15.039 34.7905C15.0299 34.8197 15.0168 34.8475 15 34.8731V35.6697C15.1281 36.1179 15.2644 36.5605 15.5677 36.9281C16.2797 37.7907 17.1867 38.1301 18.2887 37.9461C18.4155 37.9197 18.5468 37.9258 18.6706 37.9638C20.0972 38.5067 21.5658 38.8586 23.0916 38.9554C23.1446 38.9636 23.1966 38.9775 23.2466 38.9969H25.1204C25.4956 38.9503 25.8765 38.9067 26.2537 38.8581C28.222 38.6131 30.1197 37.97 31.8315 36.9681C35.5375 34.7966 37.7328 31.5347 38.6611 27.379C38.9438 26.082 39.0492 24.7527 38.9746 23.4274ZM23.8194 35.5973C23.8193 35.6923 23.8005 35.7864 23.7641 35.8742C23.7277 35.9619 23.6743 36.0417 23.607 36.1088C23.5398 36.176 23.46 36.2292 23.3722 36.2655C23.2843 36.3018 23.1902 36.3205 23.0952 36.3204H23.0775C22.9824 36.3205 22.8883 36.3018 22.8005 36.2655C22.7127 36.2292 22.6328 36.176 22.5656 36.1088C22.4983 36.0417 22.445 35.9619 22.4086 35.8742C22.3721 35.7864 22.3533 35.6923 22.3533 35.5973V34.2112C22.3533 34.1161 22.3721 34.022 22.4086 33.9343C22.445 33.8465 22.4983 33.7668 22.5656 33.6996C22.6328 33.6325 22.7127 33.5792 22.8005 33.5429C22.8883 33.5066 22.9824 33.4879 23.0775 33.488H23.0952C23.2871 33.488 23.4711 33.5642 23.6069 33.6998C23.7427 33.8353 23.8191 34.0193 23.8194 34.2112V35.5973ZM28.6547 35.2428C28.6307 35.3844 28.5652 35.5156 28.4664 35.62C28.3677 35.7243 28.2402 35.7969 28.1002 35.8287C27.9116 35.8739 27.7127 35.8427 27.5471 35.7418C27.3814 35.641 27.2624 35.4787 27.2159 35.2904L26.8934 33.9402C26.872 33.8473 26.8692 33.7511 26.8851 33.6571C26.901 33.5631 26.9353 33.4732 26.986 33.3924C27.0367 33.3117 27.1028 33.2418 27.1806 33.1867C27.2584 33.1315 27.3463 33.0923 27.4393 33.0712C27.6275 33.0275 27.8253 33.0598 27.99 33.1609C28.1546 33.262 28.2728 33.4239 28.3189 33.6116L28.6446 34.9607C28.6664 35.0535 28.6698 35.1497 28.6547 35.2438V35.2428ZM33.1082 32.7106C33.0712 32.7984 33.0173 32.8781 32.9497 32.9451C32.811 33.0802 32.625 33.1558 32.4314 33.1558C32.2377 33.1558 32.0517 33.0802 31.913 32.9451L30.9194 31.9652C30.8517 31.8984 30.798 31.8189 30.7614 31.7312C30.7248 31.6434 30.706 31.5493 30.7062 31.4542C30.7062 31.3591 30.7249 31.265 30.7614 31.1772C30.7983 31.0896 30.852 31.0102 30.9194 30.9432C31.058 30.8079 31.244 30.7321 31.4377 30.7321C31.6315 30.7321 31.8175 30.8079 31.9561 30.9432L32.9497 31.9226C33.0519 32.0233 33.1216 32.1522 33.1498 32.2929C33.1781 32.4335 33.1636 32.5794 33.1082 32.7117V32.7106ZM35.9087 28.0951C35.8652 28.2833 35.7494 28.4469 35.5863 28.5505C35.4233 28.6542 35.2261 28.6896 35.0372 28.6491L33.6637 28.3559C33.5701 28.3366 33.4812 28.2989 33.4022 28.2451C33.3232 28.1913 33.2556 28.1225 33.2033 28.0425C33.1509 27.9625 33.1149 27.8729 33.0973 27.779C33.0797 27.685 33.0808 27.5885 33.1006 27.495C33.1438 27.3067 33.2594 27.143 33.4225 27.0394C33.5855 26.9358 33.7828 26.9006 33.9716 26.9415L35.3451 27.2347C35.4388 27.2538 35.5278 27.2914 35.6069 27.3451C35.6861 27.3988 35.7538 27.4677 35.8062 27.5477C35.8586 27.6278 35.8946 27.7174 35.9122 27.8114C35.9298 27.9055 35.9286 28.002 35.9087 28.0956V28.0951ZM35.6469 23.8675H34.2238C34.1273 23.87 34.0312 23.8532 33.9413 23.818C33.8513 23.7829 33.7693 23.73 33.7002 23.6626C33.631 23.5953 33.576 23.5147 33.5384 23.4257C33.5009 23.3367 33.4815 23.2411 33.4815 23.1446C33.4815 23.048 33.5009 22.9524 33.5384 22.8634C33.576 22.7744 33.631 22.6939 33.7002 22.6265C33.7693 22.5591 33.8513 22.5063 33.9413 22.4711C34.0312 22.4359 34.1273 22.4191 34.2238 22.4216H35.6469C35.7434 22.4191 35.8395 22.4359 35.9295 22.4711C36.0194 22.5063 36.1014 22.5591 36.1706 22.6265C36.2398 22.6939 36.2948 22.7744 36.3323 22.8634C36.3699 22.9524 36.3892 23.048 36.3892 23.1446C36.3892 23.2411 36.3699 23.3367 36.3323 23.4257C36.2948 23.5147 36.2398 23.5953 36.1706 23.6626C36.1014 23.73 36.0194 23.7829 35.9295 23.818C35.8395 23.8532 35.7434 23.87 35.6469 23.8675Z" fill="#353535"/>
</svg>
