<svg width="54" height="54" viewBox="0 0 54 54" fill="none" xmlns="http://www.w3.org/2000/svg">
<rect width="53.6842" height="53.6842" rx="16" fill="#FF4E4E"/>
<path d="M23.1025 15.0009C22.8172 14.9901 22.5363 15.074 22.3035 15.2394C22.0708 15.4048 21.8993 15.6425 21.8157 15.9155L15.0606 37.3067C14.9887 37.5338 14.9806 37.7763 15.0371 38.0077C15.0937 38.2391 15.2126 38.4505 15.3811 38.6189C15.5495 38.7874 15.761 38.9063 15.9924 38.9629C16.2238 39.0194 16.4663 39.0113 16.6934 38.9394L38.0856 32.1846C38.3586 32.1016 38.5964 31.9304 38.7617 31.6978C38.927 31.4652 39.0104 31.1843 38.999 30.8992C38.5072 22.3451 31.6557 15.494 23.1025 15.0009ZM23.4147 33.1877C23.0729 33.1876 22.7345 33.1202 22.4187 32.9893C22.103 32.8584 21.8161 32.6667 21.5745 32.4249C21.3328 32.1832 21.1412 31.8962 21.0105 31.5804C20.8797 31.2646 20.8125 30.9262 20.8126 30.5844C20.8127 30.2426 20.8801 29.9042 21.011 29.5884C21.1419 29.2727 21.3336 28.9858 21.5754 28.7442C21.8171 28.5026 22.1041 28.3109 22.4199 28.1802C22.7358 28.0495 23.0742 27.9823 23.416 27.9824C24.1063 27.9825 24.7683 28.2569 25.2563 28.7451C25.7443 29.2333 26.0184 29.8954 26.0182 30.5857C26.018 31.2759 25.7436 31.9379 25.2554 32.4258C24.7671 32.9138 24.105 33.1879 23.4147 33.1877ZM31.2212 30.5857C30.8794 30.5856 30.5409 30.5182 30.2252 30.3873C29.9094 30.2564 29.6225 30.0647 29.3809 29.8229C29.1393 29.5812 28.9476 29.2942 28.8169 28.9784C28.6862 28.6626 28.6189 28.3242 28.619 27.9824C28.6191 27.6406 28.6865 27.3022 28.8174 26.9864C28.9483 26.6707 29.1401 26.3838 29.3818 26.1422C29.6236 25.9006 29.9105 25.7089 30.2264 25.5782C30.5422 25.4475 30.8807 25.3803 31.2225 25.3804C31.9128 25.3805 32.5747 25.6549 33.0627 26.1431C33.5507 26.6313 33.8248 27.2934 33.8246 27.9837C33.8244 28.6739 33.55 29.3359 33.0618 29.8238C32.5736 30.3118 31.9115 30.5858 31.2212 30.5857Z" fill="white"/>
</svg>
