<?xml version="1.0" encoding="UTF-8" standalone="no"?>
<svg
   enable-background="new 0 0 780 500"
   height="500"
   viewBox="0 0 780 500"
   width="780"
   version="1.1"
   id="svg12526"
   sodipodi:docname="americanexpress.svg"
   xml:space="preserve"
   inkscape:version="1.2.2 (732a01da63, 2022-12-09)"
   xmlns:inkscape="http://www.inkscape.org/namespaces/inkscape"
   xmlns:sodipodi="http://sodipodi.sourceforge.net/DTD/sodipodi-0.dtd"
   xmlns="http://www.w3.org/2000/svg"
   xmlns:svg="http://www.w3.org/2000/svg"><defs
     id="defs12530" /><sodipodi:namedview
     id="namedview12528"
     pagecolor="#ffffff"
     bordercolor="#000000"
     borderopacity="0.25"
     inkscape:showpageshadow="2"
     inkscape:pageopacity="0.0"
     inkscape:pagecheckerboard="0"
     inkscape:deskcolor="#d1d1d1"
     showgrid="false"
     inkscape:zoom="0.37123106"
     inkscape:cx="87.546554"
     inkscape:cy="127.95266"
     inkscape:window-width="1360"
     inkscape:window-height="706"
     inkscape:window-x="-8"
     inkscape:window-y="-8"
     inkscape:window-maximized="1"
     inkscape:current-layer="svg12526" /><path
     d="m40 0h700c22.092 0 40 17.909 40 40v420c0 22.092-17.908 40-40 40h-700c-22.091 0-40-17.908-40-40v-420c0-22.091 17.909-40 40-40z"
     fill="#16366f"
     id="path12512"
     style="fill:#016fd0;fill-opacity:1" /><g
     id="g12381"
     transform="matrix(1.7867717,0,0,1.7867717,458.15453,-155.40549)"
     style="stroke:none;stroke-width:1;stroke-dasharray:none;stroke-opacity:1;paint-order:stroke fill markers"><path
       style="display:inline;fill:#016fd0;fill-opacity:1;stroke:#ffffff;stroke-width:15.5861;stroke-linecap:butt;stroke-dasharray:none;stroke-opacity:1;paint-order:stroke fill markers"
       d="M 1.0074588,218.48926 30.707031,149.19922 h 24.492188 l 28.101274,65.69495 2.88e-4,-65.69886 27.097659,0.004 21.69922,46.99219 19.70703,-46.9961 27.59375,0.004 0.004,69.30078 -16.80468,-0.004 0.004,-54.1914 L 138.59766,218.5 H 124 l -23.99609,-54.19922 v 54.19531 l -33.804691,0.008 -6.398438,-15.30469 H 25.296875 l -6.398438,15.30469 z"
       id="path11729" /><path
       style="display:inline;fill:#ffffff;stroke:none;stroke-width:1;stroke-dasharray:none;stroke-opacity:1;paint-order:stroke fill markers"
       d="m 31.197181,188.79885 11.201256,-27.59573 11.503907,27.59766 z"
       id="path12377"
       sodipodi:nodetypes="cccc" /></g><g
     id="g12510"
     transform="matrix(1.9462438,0,0,1.9462438,302.28044,-276.29114)"><path
       style="display:inline;fill:#016fd0;fill-opacity:1;stroke:#ffffff;stroke-width:9.20391;stroke-dasharray:none;stroke-opacity:1"
       d="m 118.185,337.99419 0.1219,-69.41599 66.45383,-0.1253 20.5469,22.91954 21.06951,-22.90585 14.99429,0.15762 -0.0231,69.27853 -16.05418,0.003 -20.39751,-23.00577 -21.29132,23.01377 z"
       id="path12486"
       sodipodi:nodetypes="ccccccccccc" /><path
       style="display:inline;fill:#ffffff;fill-opacity:1;stroke-width:5"
       d="m 134.57818,309.49302 36.3153,0.01 -0.005,-14.09581 -36.3162,-9e-4 -0.02,-12.51853 41.74634,0.02 17.9143,20.20121 -18.97439,20.19642 -40.65099,0.0248 z"
       id="path12488"
       sodipodi:nodetypes="cccccccccc" /><path
       style="fill:#ffffff;fill-opacity:1;stroke-width:5"
       d="m 215.69249,303.39751 25.30696,-27.40513 0.002,55.50964 z"
       id="path12500"
       sodipodi:nodetypes="cccc" /></g></svg>
