<?xml version="1.0" encoding="UTF-8" standalone="no"?>
<svg
   height="72"
   viewBox="0 0 72 72"
   width="72"
   version="1.1"
   id="svg945"
   sodipodi:docname="button.svg"
   inkscape:version="1.2.2 (732a01da63, 2022-12-09)"
   xml:space="preserve"
   xmlns:inkscape="http://www.inkscape.org/namespaces/inkscape"
   xmlns:sodipodi="http://sodipodi.sourceforge.net/DTD/sodipodi-0.dtd"
   xmlns="http://www.w3.org/2000/svg"
   xmlns:svg="http://www.w3.org/2000/svg"><defs
     id="defs949" /><sodipodi:namedview
     id="namedview947"
     pagecolor="#505050"
     bordercolor="#eeeeee"
     borderopacity="1"
     inkscape:showpageshadow="0"
     inkscape:pageopacity="0"
     inkscape:pagecheckerboard="0"
     inkscape:deskcolor="#505050"
     showgrid="false"
     inkscape:zoom="5.1559869"
     inkscape:cx="18.328208"
     inkscape:cy="29.383317"
     inkscape:window-width="1360"
     inkscape:window-height="706"
     inkscape:window-x="-8"
     inkscape:window-y="-8"
     inkscape:window-maximized="1"
     inkscape:current-layer="g18205" /><g
     fill="none"
     fill-rule="evenodd"
     id="g943"><g
       id="g18205"><path
         style="display:inline;fill:#242424;fill-opacity:1;stroke-width:0.193949"
         d="M 32.486506,71.734943 C 21.568309,70.617671 11.846532,64.672158 5.8546461,55.447786 0.64431641,47.426602 -1.1057041,37.589275 0.9963275,28.137897 3.320042,17.689764 10.27875,8.809505 19.983315,3.9079149 25.066514,1.3404874 30.097844,0.17520163 36.088771,0.17779533 42.895692,0.18074229 48.90004,1.8495598 54.596725,5.3217999 63.620128,10.82174 69.613345,19.728756 71.504634,30.450038 c 0.345013,1.9558 0.342887,9.117549 -0.0033,11.05511 -0.84001,4.701652 -2.253557,8.679911 -4.416605,12.43 C 60.095543,66.052322 46.302,73.148701 32.486484,71.734943 Z"
         id="path1415" /><g
         id="g18188"
         transform="translate(-0.19394907,0.96974587)"
         style="fill:#ffffff"><g
           id="g18068"
           transform="translate(-0.38789858,3.2971379)"
           style="fill:#ffffff"><rect
             style="fill:#ffffff;fill-opacity:1;stroke-width:25;paint-order:stroke fill markers"
             id="rect18042"
             width="6.2063789"
             height="24.054045"
             x="29.069706"
             y="-8.2063608"
             transform="rotate(42.538575)" /><rect
             style="fill:#ffffff;fill-opacity:1;stroke-width:25;paint-order:stroke fill markers"
             id="rect18042-8"
             width="6.2063789"
             height="24.054045"
             x="-13.25999"
             y="-54.365147"
             transform="matrix(0.73682232,-0.67608643,-0.67608643,-0.73682232,0,0)" /></g><rect
           style="fill:#ffffff;fill-opacity:1;stroke-width:25;paint-order:stroke fill markers"
           id="rect18070"
           width="40.923302"
           height="6.0124278"
           x="17.524008"
           y="31.50012" /></g></g></g></svg>
