<?xml version="1.0" encoding="UTF-8" standalone="no"?>
<svg
   enable-background="new 0 0 780 500"
   height="500"
   viewBox="0 0 780 500"
   width="780"
   version="1.1"
   id="svg11429"
   sodipodi:docname="mastercard.svg"
   xml:space="preserve"
   inkscape:version="1.2.2 (732a01da63, 2022-12-09)"
   xmlns:inkscape="http://www.inkscape.org/namespaces/inkscape"
   xmlns:sodipodi="http://sodipodi.sourceforge.net/DTD/sodipodi-0.dtd"
   xmlns="http://www.w3.org/2000/svg"
   xmlns:svg="http://www.w3.org/2000/svg"><defs
     id="defs11433" /><sodipodi:namedview
     id="namedview11431"
     pagecolor="#ffffff"
     bordercolor="#000000"
     borderopacity="0.25"
     inkscape:showpageshadow="2"
     inkscape:pageopacity="0.0"
     inkscape:pagecheckerboard="0"
     inkscape:deskcolor="#d1d1d1"
     showgrid="false"
     inkscape:zoom="0.5"
     inkscape:cx="201"
     inkscape:cy="251"
     inkscape:window-width="1360"
     inkscape:window-height="706"
     inkscape:window-x="-8"
     inkscape:window-y="-8"
     inkscape:window-maximized="1"
     inkscape:current-layer="svg11429" /><path
     d="m40 0h700c22.092 0 40 17.909 40 40v420c0 22.092-17.908 40-40 40h-700c-22.091 0-40-17.908-40-40v-420c0-22.091 17.909-40 40-40z"
     fill="#16366f"
     id="path11415"
     style="fill:#252525;fill-opacity:1" /><g
     id="g15802"><path
       d="m449.01 250c0 99.143-80.37 179.5-179.51 179.5s-179.5-80.361-179.5-179.5c0-99.133 80.362-179.5 179.5-179.5 99.137 0 179.51 80.37 179.51 179.5"
       fill="#d9222a"
       id="path11417"
       inkscape:label="path11417" /><path
       style="fill:#f79e1b;fill-opacity:1;stroke:none;stroke-width:4.7619"
       d="M 499.04762,428.43956 C 462.68318,426.50479 425.9812,412.0845 397.25111,388.4435 l -7.47171,-5.51678 9.34542,-9.58482 c 4.76917,-4.89134 7.72042,-8.90126 7.72042,-9.28803 0,-0.38677 -6.95333,-0.31961 -16.97963,-0.46188 l -6.72962,-7.25866 -9.1611,-5.57143 -2.66109,-9.57142 19.68622,4.52381 30.68623,-1.10119 6.05133,-8.89881 5.05132,-9.52381 -42.44912,-0.47619 -42.44913,-0.47619 -3.19758,-7.61905 c -1.75867,-4.19048 -3.21264,-8.15476 -3.23104,-8.80953 -0.0264,-0.9375 10.46238,-1.19047 49.36035,-1.19047 h 49.39381 l -6.00341,-11.63796 c -7.16371,-13.88726 -5.7072,-24.94722 -5.22593,-44.04762 0.34397,-13.6512 1.48701,-19.43238 0.30978,-27.88408 -0.85821,-6.16169 1.73065,-10.42605 1.4318,-11.20484 -0.47212,-1.23032 7.13063,-1.41598 -40.41831,-1.41598 -51.66762,0 -54.69718,-0.0931 -54.24051,-1.66667 0.26603,-0.91666 0.96187,-3.59523 1.54632,-5.95238 0.58446,-2.35714 1.4991,-5.6748 2.03254,-7.37257 l 0.96991,-3.08685 49.86797,-0.24648 39.26137,-0.95359 -5.23702,-8.34768 -5.94411,-10.46902 h -27.68842 c -23.0068,0 -41.83055,-0.33901 -41.83055,-0.75335 0,-0.41435 2.07774,-4.37864 4.6172,-8.80953 l 4.61719,-8.05616 32.09389,-0.47619 32.09388,-0.4762 -13.52969,0.53321 c -4.85171,0.19121 -12.99001,-1.19254 -12.01874,-2.6689 l 1.51097,-12.39448 -7.59975,-5.20979 -17.49924,-0.26004 7.61905,-7.95481 c 28.39386,-29.645154 64.13089,-48.097873 104.68112,-54.051814 15.84875,-2.327051 45.6546,-1.42296 60.55698,1.836854 34.70422,7.591362 63.293,22.651936 87.94077,46.32722 73.66828,70.7617 73.56944,188.13254 -0.21757,258.35046 -36.84858,35.0662 -83.08881,51.92456 -134.86606,49.16975 z"
       id="path12610"
       sodipodi:nodetypes="sscssscccccccccssscsssssssscccccssscccsscccssssss" /><g
       id="g15795"><path
         style="fill:#ff5f00;fill-opacity:1;stroke:none;stroke-width:5.0792"
         d="m 388.98828,383.55859 c 0,0 144.04872,-116.12076 -0.42142,-266.12076"
         id="path15011"
         sodipodi:nodetypes="cc" /><path
         style="fill:#ff5f00;fill-opacity:1;stroke:none;stroke-width:5.00698"
         d="m 390.16854,382.88497 c 0,0 -141.83093,-130.64277 0.5659,-265.93642"
         id="path15078"
         sodipodi:nodetypes="cc" /></g></g></svg>
